<svg width="88" height="77" viewBox="0 0 88 77" fill="none" xmlns="http://www.w3.org/2000/svg">
<g clip-path="url(#clip0_9_24)">
<path d="M40.1156 75.3844C42.2641 77.5328 45.7531 77.5328 47.9016 75.3844L75.4016 47.8844C77.55 45.7359 77.55 42.2469 75.4016 40.0984C73.2531 37.95 69.7641 37.95 67.6156 40.0984L49.5 58.2312L49.5 5.5C49.5 2.45781 47.0422 0 44 0C40.9578 0 38.5 2.45781 38.5 5.5L38.5 58.2141L20.3844 40.1156C18.2359 37.9672 14.7469 37.9672 12.5984 40.1156C10.45 42.2641 10.45 45.7531 12.5984 47.9016L40.0984 75.4016L40.1156 75.3844Z" fill="#FAFAFA"/>
</g>
<defs>
<clipPath id="clip0_9_24">
<rect width="77" height="88" fill="white" transform="matrix(0 1 -1 0 88 0)"/>
</clipPath>
</defs>
</svg>
