<svg width="105" height="121" viewBox="0 0 105 121" fill="none" xmlns="http://www.w3.org/2000/svg">
<path d="M104.576 30.6168L104.868 30.4212C104.284 29.3452 103.408 28.367 102.533 27.8779L55.5468 0.684721C54.7685 0.195635 53.6985 0 52.5311 0C51.3637 0 50.2937 0.293452 49.5154 0.684721L2.82111 27.9757C1.16736 28.9539 0 31.3994 0 33.2579V87.7421C0 88.8181 0.194559 89.9919 0.875518 91.0679L0.680959 91.1657C1.16736 91.9483 1.84832 92.633 2.52928 93.0243L49.4181 120.315C50.1964 120.804 51.2665 121 52.4338 121C53.6012 121 54.6713 120.707 55.4495 120.315L102.144 93.0243C103.798 92.0461 104.965 89.6006 104.965 87.7421V33.1601C105.062 32.3775 104.965 31.4972 104.576 30.6168ZM52.5311 99.0889C31.3241 99.0889 14.1056 81.7753 14.1056 60.4511C14.1056 39.1269 31.3241 21.8133 52.5311 21.8133C66.8312 21.8133 79.2831 29.7365 85.8981 41.3767L73.2517 48.713C69.1659 41.3767 61.3836 36.4859 52.5311 36.4859C39.3983 36.4859 28.6975 47.2458 28.6975 60.4511C28.6975 73.6564 39.3983 84.4163 52.5311 84.4163C61.3836 84.4163 69.1659 79.5255 73.2517 72.287L85.8008 79.7211C79.1858 91.2635 66.7339 99.0889 52.5311 99.0889ZM102.144 58.4947H99.0309L98.1553 62.4074H102.144V67.2983H97.2798L96.1125 73.1673H91.3457L92.5131 67.2983H88.8165L87.6491 73.1673H82.9797L84.147 67.2983H81.715V62.4074H85.1198L85.9954 58.4947H81.715V53.6039H86.8709L88.0382 47.7348H92.8049L91.6376 53.6039H95.3342L96.5016 47.7348H101.171L100.004 53.6039H102.144V58.4947ZM89.7893 62.4074H93.4859L94.3614 58.4947H90.6648L89.7893 62.4074Z" fill="#68217A"/>
</svg>
