<svg width="117" height="117" viewBox="0 0 117 117" fill="none" xmlns="http://www.w3.org/2000/svg">
<path d="M17.1973 104.316L8.00732 1.23581H108.993L99.7938 104.3L58.4389 115.765L17.1973 104.316Z" fill="#1572B6"/>
<path d="M58.501 107.002L91.9182 97.737L99.78 9.66347H58.501V107.002Z" fill="#33A9DC"/>
<path d="M58.501 47.0093H75.2302L76.3855 34.0634H58.501V21.4211H90.2025L89.899 24.8131L86.7912 59.6517H58.501V47.0093Z" fill="white"/>
<path d="M58.576 79.8424L58.5202 79.8589L44.4409 76.0573L43.5406 65.9743H30.8516L32.6221 85.825L58.5184 93.0123L58.576 92.9958V79.8424Z" fill="#EBEBEB"/>
<path d="M74.1554 59.117L72.6326 76.0473L58.5322 79.8534V93.0068L84.4496 85.8241L84.6397 83.6879L86.8389 59.117H74.1554Z" fill="white"/>
<path d="M58.5441 21.4211V34.0634H28.0071L27.7539 31.2225L27.178 24.8131L26.8755 21.4211H58.5441ZM58.5011 47.0111V59.6535H44.5992L44.346 56.8126L43.7692 50.4032L43.4676 47.0111H58.5011Z" fill="#EBEBEB"/>
</svg>
