<svg width="115" height="126" viewBox="0 0 115 126" fill="none" xmlns="http://www.w3.org/2000/svg">
<path fill-rule="evenodd" clip-rule="evenodd" d="M17.9688 95.3859V87.4125C17.9688 86.3297 18.5977 85.5422 19.5859 85.5422H19.8555C20.8438 85.5422 21.4727 86.4281 21.4727 87.4125V104.147C21.4727 108.183 19.6758 111.431 16.4414 113.498C14.9141 114.483 13.2969 114.975 11.5898 114.975H10.8711C7.1875 114.975 4.22266 113.006 2.33594 109.462C1.4375 107.789 0.988281 106.017 0.988281 104.147V103.359C0.988281 99.3234 2.78516 96.075 6.01953 94.0078C7.54688 93.0234 9.16406 92.5312 10.8711 92.5312H11.5898C14.0156 92.6297 16.1719 93.6141 17.9688 95.3859ZM4.40234 103.753C4.40234 106.706 5.75 108.872 8.08594 110.348C9.07422 110.939 10.0625 111.234 11.1406 111.234C13.7461 111.234 15.7227 109.856 17.0703 107.395C17.6992 106.214 17.9688 105.033 17.9688 103.655C17.9688 101.095 16.8906 99.1266 15.0039 97.65C13.8359 96.7641 12.5781 96.2719 11.2305 96.2719C8.35547 96.2719 6.28906 97.8469 5.03125 100.702C4.58203 101.686 4.40234 102.769 4.40234 103.753ZM33.332 92.6297H33.7813C37.7344 92.6297 40.7891 94.6969 42.6758 98.5359C43.4844 100.012 43.8438 101.686 43.8438 103.458V104.245C43.8438 108.281 42.0469 111.53 38.8125 113.597C37.2852 114.581 35.668 115.073 33.9609 115.073H33.2422C29.5586 115.073 26.5938 113.105 24.707 109.561C23.8086 107.888 23.3594 106.116 23.3594 104.245V103.458C23.3594 99.4219 25.2461 96.1734 28.3906 94.1062C29.918 93.0234 31.625 92.6297 33.332 92.6297ZM26.8633 103.753C26.8633 106.608 28.1211 108.675 30.3672 110.152C31.4453 110.841 32.5234 111.136 33.7813 111.136C36.3867 111.136 38.2734 109.659 39.6211 107.297C40.25 106.116 40.5195 104.934 40.5195 103.556C40.5195 100.898 39.3516 98.8313 37.375 97.3547C36.2969 96.5672 35.0391 96.1734 33.7813 96.1734C30.9063 96.1734 28.8398 97.7484 27.582 100.603C27.043 101.686 26.8633 102.769 26.8633 103.753ZM58.1289 96.6656C57.5898 96.3703 56.6016 96.2719 56.0625 96.2719C53.1875 96.1734 51.1211 97.9453 49.8633 100.702C49.4141 101.686 49.2344 102.67 49.2344 103.753C49.2344 107.002 50.7617 109.266 53.3672 110.644C54.3555 111.136 55.5234 111.234 56.6016 111.234C57.5 111.234 58.8477 110.644 59.6563 110.152L59.8359 110.053H60.5547C61.3633 110.25 61.9024 110.742 61.9024 111.727V112.12C61.9024 114.384 58.0391 114.975 56.6016 115.073C51.4805 115.467 47.6172 112.416 46.1797 107.002C45.9102 106.116 45.8203 105.131 45.8203 104.147V103.359C45.8203 99.3234 47.707 96.075 50.8516 94.0078C52.3789 93.0234 53.9961 92.5312 55.7031 92.5312H56.4219C58.2188 92.5312 59.9258 93.1219 61.4531 94.2047L61.543 94.3031L61.6328 94.4016C61.8125 94.6969 61.9024 94.9922 61.9024 95.3859V95.7797C61.9024 96.7641 61.2734 97.2562 60.4649 97.4531H60.1953C59.7461 97.4531 58.5781 96.8625 58.1289 96.6656ZM69.2695 99.225C70.6172 97.7484 71.9649 96.2719 73.3125 94.8938C73.6719 94.5 75.1094 92.8266 75.6484 92.8266H76.3672C77.1758 93.0234 77.7149 93.5156 77.7149 94.5V94.8938C77.7149 95.4844 77.0859 96.2719 76.6367 96.6656L74.2109 99.3234L70.0781 103.95C71.875 105.919 73.6719 107.887 75.3789 109.856L76.8164 111.53C76.9961 111.727 77.2656 111.923 77.3555 112.219C77.5352 112.514 77.625 112.809 77.625 113.105V113.597C77.4453 114.483 76.9062 115.172 76.0977 115.172H75.8281C75.2891 115.172 74.6602 114.483 74.2109 114.089C73.4024 113.302 72.5938 112.416 71.875 111.53L69.2695 108.675V113.203C69.2695 114.286 68.6406 115.073 67.6524 115.073H67.3828C66.3945 115.073 65.7656 114.188 65.7656 113.203V87.5109C65.7656 86.4281 66.3945 85.6406 67.3828 85.6406H67.6524C68.6406 85.6406 69.2695 86.4281 69.2695 87.5109V99.225ZM112.035 92.7281H112.395C113.383 92.7281 114.102 93.5156 114.102 94.5984C114.102 96.1734 112.754 96.5672 111.586 96.5672C110.059 96.5672 108.531 97.5516 107.543 98.7328C106.195 100.209 105.656 101.981 105.656 104.048V113.105C105.656 114.188 105.027 114.975 104.039 114.975H103.77C102.781 114.975 102.152 114.089 102.152 113.105V103.458C102.152 99.7172 103.77 96.7641 106.555 94.5984C108.172 93.4172 110.059 92.7281 112.035 92.7281ZM87.6875 110.742C88.9453 111.234 90.3828 111.136 91.6406 110.939C92.2695 110.644 93.9766 109.856 94.6055 109.955H94.7852C95.1445 110.152 95.5039 110.447 95.6836 110.841C96.1328 111.825 95.9531 112.809 95.0547 113.4L94.7852 113.597C91.5508 115.664 88.0469 115.369 84.8125 113.4C83.2852 112.514 82.1172 111.136 81.2188 109.462L81.0391 109.069C78.9727 105.131 79.2422 100.898 81.5781 97.1578C82.3867 95.8781 83.4649 94.8937 84.7227 94.1062L85.1719 93.8109C88.2266 91.8422 91.5508 92.0391 94.6953 93.7125C96.4024 94.5984 97.75 95.9766 98.7383 97.7484L98.918 98.0437C99.6367 99.3234 98.7383 100.505 97.8399 101.292C96.7617 102.178 95.6836 103.261 94.6953 104.245C92.2695 106.411 89.9336 108.577 87.6875 110.742ZM84.7227 108.478L92.3594 101.292C93.2578 100.505 94.1563 99.6188 95.0547 98.7328C94.3359 97.7484 93.168 97.0594 92.2695 96.6656C90.293 95.8781 88.3164 96.075 86.5195 97.2562C84.1836 98.7328 83.1055 101.194 83.1953 104.147C83.1953 105.328 83.5547 106.411 84.0938 107.494C84.2734 107.887 84.4531 108.183 84.7227 108.478ZM66.2148 33.1734H76.3672V44.4937H81.4883C83.8242 44.4937 86.25 44.0016 88.4961 43.2141C89.5742 42.8203 90.832 42.2297 91.9102 41.5406C90.4727 39.4734 89.7539 36.9141 89.5742 34.3547C89.3047 30.9094 89.9336 26.3812 92.0899 23.7234L93.168 22.3453L94.4258 23.4281C97.6602 26.2828 100.266 30.1219 100.805 34.65C104.668 33.3703 109.16 33.6656 112.574 35.8312L113.922 36.7172L113.203 38.2922C110.328 44.3953 104.309 46.3641 98.4688 45.9703C89.6641 69.8906 70.6172 81.2109 47.4375 81.2109C35.4883 81.2109 24.5273 76.2891 18.2383 64.6734L18.1484 64.4766L17.25 62.4094C15.0938 57.2906 14.4648 51.6797 14.9141 46.0687L15.0938 44.3953H23.7188V33.1734H33.8711V22.05H54.0859V10.9266H66.2148V33.1734Z" fill="#3A4D54"/>
<path d="M99.008 37.3078C99.7267 31.5 95.7736 26.9719 93.258 24.8062C90.4728 28.35 90.0236 37.8 94.4259 41.7375C91.9103 44.1 86.7892 46.3641 81.3986 46.3641H16.5314C15.9924 52.4672 16.9806 58.0781 19.2267 62.9016L19.9455 64.3781C20.3947 65.2641 20.9338 66.0516 21.4728 66.9375C24.1681 67.1344 26.5939 67.2328 28.84 67.1344C33.2424 67.0359 36.8361 66.4453 39.6213 65.4609C40.0705 65.2641 40.4299 65.5594 40.6095 65.9531C40.7892 66.4453 40.5197 66.8391 40.1603 67.0359C39.8009 67.1344 39.4416 67.3312 38.9924 67.4297C36.8361 68.1187 34.5002 68.5125 31.5353 68.7094H30.9963C29.8283 68.8078 28.5705 68.8078 27.2228 68.8078C25.7853 68.8078 24.4377 68.8078 22.8205 68.7094C28.2111 75.4031 36.6564 79.3406 47.258 79.3406C69.7189 79.3406 88.7658 68.4141 97.1213 44.0016C103.141 44.6906 108.891 43.0172 111.496 37.4062C107.453 34.8469 102.063 35.6344 99.008 37.3078Z" fill="#00AADA"/>
<path d="M99.0077 37.3078C99.7265 31.5 95.7733 26.9719 93.2577 24.8062C90.4726 28.35 90.0233 37.8 94.4257 41.7375C91.9101 44.1 86.789 46.3641 81.3983 46.3641H20.3046C20.0351 55.7156 23.1796 62.8031 28.8397 67.0359C33.2421 66.9375 36.8358 66.3469 39.621 65.3625C40.0702 65.1656 40.4296 65.4609 40.6093 65.8547C40.789 66.3469 40.5194 66.7406 40.1601 66.9375C39.8007 67.0359 39.4413 67.2328 38.9921 67.3312C36.8358 68.0203 34.3202 68.5125 31.3554 68.7094L31.2655 68.6109C38.9022 72.9422 49.953 72.8437 62.7108 67.5281C76.9062 61.5234 90.203 50.1047 99.4569 37.1109C99.2772 37.2094 99.1874 37.3078 99.0077 37.3078Z" fill="#28B8EB"/>
<path d="M16.6211 53.7469C16.9805 56.9953 17.8789 60.0469 19.2266 62.9016L19.9453 64.3781C20.3945 65.2641 20.9336 66.0516 21.4727 66.9375C24.168 67.1344 26.5937 67.2328 28.8398 67.1344C33.2422 67.0359 36.8359 66.4453 39.6211 65.4609C40.0703 65.2641 40.4297 65.5594 40.6094 65.9531C40.7891 66.4453 40.5195 66.8391 40.1602 67.0359C39.8008 67.1344 39.4414 67.3312 38.9922 67.4297C36.8359 68.1187 34.3203 68.6109 31.3555 68.8078H30.9961C29.8281 68.9062 28.5703 68.9062 27.3125 68.9062C25.875 68.9062 24.4375 68.9062 22.9102 68.8078C28.3008 75.5016 36.8359 79.4391 47.4375 79.4391C66.6641 79.4391 83.375 71.4656 93.0781 53.8453H16.6211V53.7469Z" fill="#028BB8"/>
<path d="M20.9336 53.7469C22.1016 59.4562 24.7969 63.9844 28.8398 67.0359C33.2422 66.9375 36.8359 66.3469 39.6211 65.3625C40.0703 65.1656 40.4297 65.4609 40.6094 65.8547C40.7891 66.3469 40.5195 66.7406 40.1602 66.9375C39.8008 67.0359 39.4414 67.2328 38.9922 67.3313C36.8359 68.0203 34.3203 68.5125 31.2656 68.7094C38.9023 73.0406 49.9531 72.9422 62.6211 67.6266C70.2578 64.3781 77.7149 59.5547 84.3633 53.7469H20.9336Z" fill="#019BC6"/>
<path fill-rule="evenodd" clip-rule="evenodd" d="M25.3359 34.9453H34.1406V44.5922H25.3359V34.9453ZM26.0547 35.8313H26.7734V43.8047H26.0547V35.8313ZM27.4023 35.8313H28.1211V43.8047H27.4023V35.8313ZM28.75 35.8313H29.4687V43.8047H28.75V35.8313ZM30.0078 35.8313H30.7266V43.8047H30.0078V35.8313ZM31.3555 35.8313H32.0742V43.8047H31.3555V35.8313ZM32.7031 35.8313H33.4219V43.8047H32.7031V35.8313ZM35.4883 23.9203H44.293V33.4688H35.4883V23.9203ZM36.207 24.7078H36.9258V32.6813H36.207V24.7078ZM37.5547 24.7078H38.2734V32.6813H37.5547V24.7078ZM38.8125 24.7078H39.5312V32.6813H38.8125V24.7078ZM40.1602 24.7078H40.8789V32.6813H40.1602V24.7078ZM41.5078 24.7078H42.2266V32.6813H41.5078V24.7078ZM42.8555 24.7078H43.5742V32.6813H42.8555V24.7078Z" fill="#00ACD3"/>
<path fill-rule="evenodd" clip-rule="evenodd" d="M35.4883 34.9453H44.293V44.5922H35.4883V34.9453ZM36.207 35.8313H36.9258V43.8047H36.207V35.8313ZM37.5547 35.8313H38.2734V43.8047H37.5547V35.8313ZM38.8125 35.8313H39.5312V43.8047H38.8125V35.8313ZM40.1602 35.8313H40.8789V43.8047H40.1602V35.8313ZM41.5078 35.8313H42.2266V43.8047H41.5078V35.8313ZM42.8555 35.8313H43.5742V43.8047H42.8555V35.8313Z" fill="#23C2EE"/>
<path fill-rule="evenodd" clip-rule="evenodd" d="M45.6406 34.9453H54.4453V44.5922H45.6406V34.9453ZM46.3594 35.8313H47.0781V43.8047H46.3594V35.8313ZM47.6172 35.8313H48.3359V43.8047H47.6172V35.8313ZM48.9648 35.8313H49.6836V43.8047H48.9648V35.8313ZM50.3125 35.8313H51.0312V43.8047H50.3125V35.8313ZM51.6602 35.8313H52.3789V43.8047H51.6602V35.8313ZM52.918 35.8313H53.6367V43.8047H52.918V35.8313Z" fill="#00ACD3"/>
<path fill-rule="evenodd" clip-rule="evenodd" d="M45.6406 23.9203H54.4453V33.4688H45.6406V23.9203ZM46.3594 24.7078H47.0781V32.6813H46.3594V24.7078ZM47.6172 24.7078H48.3359V32.6813H47.6172V24.7078ZM48.9648 24.7078H49.6836V32.6813H48.9648V24.7078ZM50.3125 24.7078H51.0312V32.6813H50.3125V24.7078ZM51.6602 24.7078H52.3789V32.6813H51.6602V24.7078ZM52.918 24.7078H53.6367V32.6813H52.918V24.7078ZM55.7031 34.9453H64.5078V44.5922H55.7031V34.9453ZM56.5117 35.8313H57.2305V43.8047H56.5117V35.8313ZM57.7695 35.8313H58.4883V43.8047H57.7695V35.8313ZM59.1172 35.8313H59.8359V43.8047H59.1172V35.8313ZM60.4648 35.8313H61.1836V43.8047H60.4648V35.8313ZM61.7227 35.8313H62.4414V43.8047H61.7227V35.8313ZM63.0703 35.8313H63.7891V43.8047H63.0703V35.8313Z" fill="#23C2EE"/>
<path fill-rule="evenodd" clip-rule="evenodd" d="M55.7031 23.9203H64.5078V33.4688H55.7031V23.9203ZM56.5117 24.7078H57.2305V32.6813H56.5117V24.7078ZM57.7695 24.7078H58.4883V32.6813H57.7695V24.7078ZM59.1172 24.7078H59.8359V32.6813H59.1172V24.7078ZM60.4648 24.7078H61.1836V32.6813H60.4648V24.7078ZM61.7227 24.7078H62.4414V32.6813H61.7227V24.7078ZM63.0703 24.7078H63.7891V32.6813H63.0703V24.7078Z" fill="#00ACD3"/>
<path fill-rule="evenodd" clip-rule="evenodd" d="M55.7031 12.7969H64.5078V22.4437H55.7031V12.7969ZM56.5117 13.5844H57.2305V21.6562H56.5117V13.5844ZM57.7695 13.5844H58.4883V21.6562H57.7695V13.5844ZM59.1172 13.5844H59.8359V21.6562H59.1172V13.5844ZM60.4648 13.5844H61.1836V21.6562H60.4648V13.5844ZM61.7227 13.5844H62.4414V21.6562H61.7227V13.5844ZM63.0703 13.5844H63.7891V21.6562H63.0703V13.5844Z" fill="#23C2EE"/>
<path fill-rule="evenodd" clip-rule="evenodd" d="M65.8555 34.9453H74.6602V44.5922H65.8555V34.9453ZM66.5742 35.8313H67.293V43.8047H66.5742V35.8313ZM67.9219 35.8313H68.6406V43.8047H67.9219V35.8313ZM69.2695 35.8313H69.9883V43.8047H69.2695V35.8313ZM70.5273 35.8313H71.2461V43.8047H70.5273V35.8313ZM71.875 35.8313H72.5937V43.8047H71.875V35.8313ZM73.2227 35.8313H73.9414V43.8047H73.2227V35.8313Z" fill="#00ACD3"/>
<path fill-rule="evenodd" clip-rule="evenodd" d="M43.6641 60.2437C45.0117 60.2437 46.0898 61.425 46.0898 62.9016C46.0898 64.3781 45.0117 65.5594 43.6641 65.5594C42.3164 65.5594 41.2383 64.3781 41.2383 62.9016C41.3281 61.425 42.4062 60.2437 43.6641 60.2437Z" fill="#D4EEF1"/>
<path fill-rule="evenodd" clip-rule="evenodd" d="M43.6641 60.9328C43.8438 60.9328 44.1133 60.9328 44.293 61.0313C44.1133 61.1297 43.9336 61.425 43.9336 61.7203C43.9336 62.1141 44.293 62.5078 44.6523 62.5078C44.9219 62.5078 45.1914 62.3109 45.2812 62.1141C45.3711 62.3109 45.3711 62.6062 45.3711 62.8031C45.3711 63.8859 44.5625 64.6734 43.6641 64.6734C42.6758 64.6734 41.957 63.7875 41.957 62.8031C41.957 61.8188 42.7656 60.9328 43.6641 60.9328ZM0.898438 54.7312H113.473C111.047 54.0422 105.746 53.1563 106.555 49.6125C102.062 55.2234 91.3711 53.55 88.5859 50.7937C85.5312 55.6172 67.9219 53.7469 66.7539 50.0063C62.9805 54.9281 51.2109 54.9281 47.4375 50.0063C46.1797 53.7469 28.5703 55.6172 25.6055 50.7937C22.9102 53.55 12.1289 55.2234 7.63672 49.6125C8.625 53.0578 3.32422 54.0422 0.898438 54.7312Z" fill="#3A4D54"/>
<path d="M50.1328 79.3406C44.1133 76.1906 40.8789 71.9578 38.9922 67.3312C36.7461 68.0203 34.0508 68.5125 30.9961 68.7094C29.8281 68.8078 28.5703 68.8078 27.3125 68.8078C25.7852 68.8078 24.2578 68.8078 22.6406 68.7094C28.1211 74.7141 34.9492 79.3406 47.4375 79.439C48.3359 79.3406 49.2344 79.3406 50.1328 79.3406Z" fill="#BFDBE0"/>
<path d="M41.2383 71.564C40.4297 70.2844 39.6211 68.8078 38.9922 67.3312C36.7461 68.0203 34.0508 68.5125 30.9961 68.7094C33.1523 69.9891 36.207 71.1703 41.2383 71.564Z" fill="#D4EEF1"/>
</svg>
