<svg width="46" height="46" viewBox="0 0 46 46" fill="none" xmlns="http://www.w3.org/2000/svg">
<path d="M41.0665 21.2654L8.48312 5.93208C8.15505 5.77686 7.78962 5.71808 7.42943 5.76259C7.06923 5.80709 6.7291 5.95305 6.44868 6.18346C6.16826 6.41386 5.95909 6.71922 5.84556 7.06394C5.73203 7.40866 5.71882 7.77855 5.80745 8.1305L9.52387 23L5.80745 37.8695C5.71799 38.2216 5.73063 38.5919 5.84389 38.937C5.95716 39.2822 6.16636 39.5879 6.44704 39.8185C6.72771 40.0491 7.06825 40.1951 7.42882 40.2392C7.78939 40.2834 8.15508 40.224 8.48312 40.0679L41.0665 24.7346C41.3957 24.5798 41.6741 24.3345 41.8692 24.0273C42.0642 23.7202 42.1677 23.3638 42.1677 23C42.1677 22.6362 42.0642 22.2798 41.8692 21.9727C41.6741 21.6655 41.3957 21.4202 41.0665 21.2654ZM10.5052 34.8776L12.1133 28.4433L23 23L12.1133 17.5567L10.5052 11.1224L35.7477 23L10.5052 34.8776Z" fill="white"/>
</svg>
