<svg width="117" height="117" viewBox="0 0 117 117" fill="none" xmlns="http://www.w3.org/2000/svg">
<path d="M17.4011 104.09L8.25586 1.51826H108.744L99.589 104.074L58.4388 115.482L17.4011 104.09Z" fill="#E44D26"/>
<path d="M58.5 106.763L91.7518 97.5433L99.5752 9.90479H58.5V106.763Z" fill="#F16529"/>
<path d="M58.4998 47.9471H41.8529L40.703 35.0644H58.4998V22.485H26.9546L27.2562 25.8597L30.3476 60.5274H58.4998V47.9471ZM58.4998 80.6185L58.444 80.634L44.4342 76.8498L43.5393 66.818H30.9097L32.672 86.5699L58.4422 93.7234L58.4998 93.7079V80.6185Z" fill="#EBEBEB"/>
<path d="M58.4561 47.9471V60.5274H73.9467L72.4869 76.8425L58.4561 80.6294V93.7179L84.2463 86.5699L84.4355 84.4447L87.3916 51.3255L87.6978 47.9471H84.3085H58.4561ZM58.4561 22.485V35.0644H88.8431L89.0954 32.2381L89.6695 25.8597L89.9702 22.485H58.4561Z" fill="white"/>
</svg>
