<svg width="117" height="117" viewBox="0 0 117 117" fill="none" xmlns="http://www.w3.org/2000/svg">
<path d="M1.82812 0.914062V115.172H116.086V0.914062H1.82812ZM62.265 98.2736C60.5786 101.7 57.3593 103.952 53.629 105.039C47.8969 106.355 42.4143 105.604 38.3358 103.157C35.6064 101.482 33.4748 98.9043 32.0278 95.9345L40.7297 90.6055C40.8056 90.6375 41.0341 91.0507 41.3394 91.5845C42.4491 93.4437 43.4061 94.7599 45.2872 95.6841C47.1355 96.3148 51.193 96.7179 52.7597 93.4656C53.7167 91.8112 53.4123 86.4932 53.4123 80.6093C53.4114 71.3636 53.4544 62.1562 53.4544 53.0156H64.1571C64.1571 63.0703 64.212 72.593 64.1571 82.4046C64.18 88.4191 64.7019 93.781 62.265 98.2736ZM106.665 95.2499C102.944 107.975 82.2026 108.389 73.9138 99.9811C72.1625 98.0021 71.0647 96.9683 70.0199 94.6841C74.4248 92.1503 74.4248 92.1503 78.7108 89.6704C81.039 93.249 83.1916 95.217 87.0645 96.0223C92.3185 96.6639 97.6045 94.8587 96.419 89.2783C95.2005 84.7208 85.6605 83.612 79.1679 78.7383C72.5766 74.3115 71.0318 63.5548 76.4485 57.4086C78.2538 55.1353 81.3324 53.4388 84.5627 52.6235L87.9337 52.1875C94.4062 52.0568 98.4518 53.7661 101.422 57.0823C102.248 57.9196 102.923 58.8227 104.184 60.7797C100.736 62.9771 100.747 62.9561 95.8084 66.1535C94.7535 63.8811 93.0031 62.4552 91.1531 61.8354C88.2811 60.9652 84.6596 61.9113 83.9082 64.946C83.6477 65.8811 83.7016 66.7512 84.1157 68.296C85.2793 70.9495 89.1842 72.1031 92.6869 73.7127C102.77 77.8023 106.175 82.187 107.012 87.4063C107.818 91.8998 106.817 94.8148 106.665 95.2499Z" fill="#F0DB4F"/>
</svg>
