<svg width="36" height="36" viewBox="0 0 36 36" fill="none" xmlns="http://www.w3.org/2000/svg">
<g clip-path="url(#clip0_19_14)">
<path d="M36.0714 4.5H6.35714C5.8646 4.5 5.39223 4.65804 5.04394 4.93934C4.69566 5.22064 4.5 5.60218 4.5 6V30C4.5 30.3978 4.69566 30.7794 5.04394 31.0607C5.39223 31.342 5.8646 31.5 6.35714 31.5H36.0714C36.564 31.5 37.0363 31.342 37.3846 31.0607C37.7329 30.7794 37.9286 30.3978 37.9286 30V6C37.9286 5.60218 37.7329 5.22064 37.3846 4.93934C37.0363 4.65804 36.564 4.5 36.0714 4.5ZM14.4153 27.5055H9.453V14.6205H14.4153V27.5055ZM11.9341 12.861C11.1717 12.861 10.4405 12.6164 9.90131 12.1809C9.36217 11.7454 9.05929 11.1548 9.05929 10.539C9.05929 9.92317 9.36217 9.33256 9.90131 8.8971C10.4405 8.46164 11.1717 8.217 11.9341 8.217C12.6966 8.217 13.4278 8.46164 13.967 8.8971C14.5061 9.33256 14.809 9.92317 14.809 10.539C14.809 11.1548 14.5061 11.7454 13.967 12.1809C13.4278 12.6164 12.6966 12.861 11.9341 12.861ZM32.9849 27.5055H28.0281V21.24C28.0281 19.746 27.9947 17.8245 25.4504 17.8245C22.869 17.8245 22.4771 19.4535 22.4771 21.135V27.507H17.5241V14.622H22.2784V16.383H22.3471C23.0064 15.3705 24.6259 14.3025 27.0346 14.3025C32.0563 14.3025 32.983 16.9695 32.983 20.4405L32.9849 27.5055Z" fill="#FAFAFA"/>
</g>
<defs>
<clipPath id="clip0_19_14">
<rect width="36" height="36" fill="white"/>
</clipPath>
</defs>
</svg>
