<svg width="99" height="92" viewBox="0 0 99 92" fill="none" xmlns="http://www.w3.org/2000/svg">
<path fill-rule="evenodd" clip-rule="evenodd" d="M67.4893 71.9749C67.62 71.7413 67.7453 71.535 67.852 71.3216C67.9193 71.185 68.0229 71.1577 68.1691 71.1613C69.0454 71.1843 69.9217 71.2094 70.7988 71.2173C71.5436 71.2245 72.29 71.2116 73.0356 71.2037C73.8755 71.1943 74.7155 71.1534 75.5547 71.1757C76.6723 71.2058 77.7613 71.4092 78.7722 71.8714C79.9795 72.4241 80.8929 73.2658 81.5155 74.3748C81.907 75.078 82.1513 75.8438 82.2356 76.6317C82.3686 77.7874 82.2812 78.9166 81.8868 80.022C81.398 81.392 80.4699 82.4406 79.1805 83.2262C78.1882 83.8307 77.1 84.1879 75.9336 84.392C74.6992 84.6084 73.461 84.5387 72.2227 84.5422C70.8645 84.5473 69.5072 84.52 68.149 84.5056C67.9116 84.5034 67.8775 84.4617 67.9402 84.2512L67.9982 84.0571C68.1304 83.6704 68.2016 83.6532 68.6239 83.5885C68.9232 83.5447 69.2095 83.4436 69.4646 83.2916C69.6069 83.2039 69.6657 82.9754 69.7214 82.7993C69.7693 82.6455 69.7717 82.4766 69.7732 82.3141C69.7926 79.8524 69.8127 77.3914 69.8235 74.9311C69.8265 74.3088 69.8097 73.6866 69.7732 73.0652C69.7469 72.6304 69.4971 72.3328 68.9402 72.2301C68.5071 72.1503 68.0709 72.0885 67.6354 72.0173L67.4893 71.9749ZM79.923 77.9355C79.8643 77.4453 79.8356 76.9508 79.7413 76.4678C79.5154 75.3085 78.9694 74.2986 78.0103 73.5073C76.4596 72.2286 74.5925 72.0317 72.6357 72.1841C72.1902 72.2186 72.0943 72.3602 72.0873 72.7857C72.0765 73.3894 72.0657 73.9932 72.0649 74.5969C72.0618 76.5117 72.0618 78.4264 72.0649 80.3412C72.0657 80.886 72.0719 81.4308 72.0889 81.9742C72.1075 82.5305 72.3248 83.0012 72.911 83.2169C73.8353 83.5568 74.8075 83.5971 75.7774 83.4584C77.3266 83.2377 78.4102 82.3989 79.1372 81.1418C79.7127 80.1442 79.8751 79.0553 79.923 77.9355ZM83.6889 84.4553C83.6703 84.157 83.8018 83.9105 83.9642 83.6841C84.0083 83.623 84.1599 83.6258 84.2643 83.6064L85.1507 83.4433C85.4639 83.3815 85.6287 83.186 85.6728 82.9006C85.7022 82.7123 85.73 82.5218 85.7323 82.3314C85.7533 80.8242 85.7685 79.317 85.778 77.8097C85.7857 76.3003 85.7795 74.791 85.7795 73.2816L85.7725 72.9934C85.7408 72.5082 85.4887 72.2567 84.9705 72.1855L83.8467 72.0267C83.7082 72.0094 83.658 71.9476 83.7082 71.8333C83.7949 71.6385 83.8776 71.4366 83.9998 71.2612C84.0455 71.1965 84.1994 71.1713 84.303 71.1735C84.8398 71.1807 85.3765 71.2181 85.9133 71.2173L90.5856 71.1915C91.4859 71.1907 92.3553 71.3367 93.1627 71.737C94.0514 72.1769 94.5487 72.8575 94.6911 73.7847C94.8396 74.7586 94.5217 75.5794 93.756 76.2313C93.4412 76.5002 93.0336 76.6755 92.6685 76.894L92.5494 76.963C92.8882 77.0787 93.2107 77.1787 93.5247 77.298C94.4435 77.648 95.1744 78.195 95.5612 79.0682C95.8667 79.7575 95.8667 80.4763 95.6857 81.1907C95.4042 82.3091 94.6114 83.053 93.5804 83.6158C92.6128 84.1441 91.5656 84.4517 90.4503 84.5034C89.4216 84.5516 88.3883 84.5336 87.3573 84.5444L86.7602 84.5473C85.7666 84.5261 84.773 84.5031 83.7794 84.4783L83.6889 84.4553ZM87.9714 80.0788H87.9815C87.9815 80.5517 87.9745 81.0247 87.9838 81.4976C87.99 81.8038 87.9784 82.1186 88.0495 82.4133C88.1563 82.8539 88.3728 83.2514 88.905 83.3779C89.6163 83.5516 90.3595 83.582 91.0845 83.467C91.9948 83.3197 92.7211 82.8956 93.1194 82.0899C93.4149 81.4912 93.459 80.8565 93.3576 80.2082C93.2231 79.3543 92.735 78.7347 91.9237 78.3286C91.3916 78.062 90.8239 77.8988 90.219 77.8773C89.5415 77.8536 88.8632 77.8521 88.1857 77.8327C87.9954 77.8277 87.9691 77.9175 87.9699 78.0627C87.9737 78.734 87.9714 79.4061 87.9714 80.0788ZM89.4139 76.8624C89.7844 76.8452 90.2036 76.8401 90.6204 76.8013C91.4186 76.7273 91.9809 76.3542 92.2741 75.6448C92.4233 75.2847 92.4171 74.9139 92.421 74.5394C92.4326 73.5641 91.8201 72.7648 90.8231 72.4342C90.0535 72.179 89.26 72.1747 88.4618 72.1948C88.1385 72.2027 87.9939 72.3343 87.9892 72.6369L87.9413 76.5821C87.9389 76.7388 88.0116 76.8063 88.1756 76.8114L89.4139 76.8624Z" fill="#94795D"/>
<path fill-rule="evenodd" clip-rule="evenodd" d="M8.15418 83.697L8.09772 84.3755C7.57179 84.3755 7.08684 84.3719 6.60189 84.3769C5.68847 84.3856 4.77504 84.3992 3.86083 84.4114L3.77266 84.4165C3.64195 84.4021 3.4045 84.4021 3.39832 84.3661C3.35965 84.1642 3.37202 83.9522 3.38207 83.743C3.38285 83.7193 3.47179 83.6891 3.52361 83.6776L4.2344 83.5302C4.67758 83.4232 4.83382 83.2456 4.8547 82.8201C4.87868 82.3407 4.90265 81.8606 4.90497 81.3812C4.91193 80.201 4.9042 79.0222 4.90961 77.8421C4.91039 77.5661 4.80752 77.3605 4.53063 77.2484C4.20161 77.1127 3.87027 76.9818 3.53676 76.8559C3.37898 76.797 3.17402 76.7646 3.19258 76.5677C3.21115 76.3672 3.40992 76.3147 3.59709 76.2752C4.37207 76.1106 5.14783 75.9503 5.9205 75.7749C6.16954 75.7182 6.40776 75.6226 6.70554 75.5262C6.721 75.6757 6.74962 75.8181 6.74653 75.9604L6.70089 76.6367C6.70012 76.7129 6.74266 76.815 6.80376 76.8574C6.84089 76.884 6.96541 76.8358 7.02729 76.7912C7.6878 76.3241 8.38699 75.9208 9.1844 75.6858C10.4196 75.3214 11.48 75.6592 12.2225 76.6489C12.4839 76.9975 12.4847 76.9975 12.8474 76.7539C13.47 76.3334 14.1213 75.9625 14.8498 75.7182C16.4493 75.1812 17.9861 75.8626 18.5422 77.3598C18.7449 77.9031 18.8222 78.4645 18.8207 79.0381L18.806 82.846C18.8052 83.1601 18.9173 83.3391 19.2391 83.4368C19.6003 83.5468 19.9746 83.6222 20.3815 83.7214L20.2871 84.3762C19.8246 84.3762 19.3992 84.3733 18.9738 84.3769C17.9343 84.3856 16.8948 84.3906 15.8561 84.4129C15.6751 84.4172 15.6279 84.3755 15.6186 84.2181C15.5885 83.7142 15.5838 83.715 16.0943 83.6014L16.266 83.5604C16.7649 83.4339 16.9312 83.2916 16.935 82.8216C16.9466 81.4717 16.9768 80.1183 16.9033 78.7714C16.8267 77.3742 15.6333 76.6302 14.1762 76.9882C13.7059 77.1079 13.2629 77.3061 12.8691 77.5732C12.7337 77.6631 12.7082 77.7666 12.719 77.924C12.76 78.5191 12.7855 79.115 12.7909 79.7108C12.8002 80.7537 12.7863 81.7966 12.7909 82.8402C12.7925 83.2629 12.9479 83.4246 13.3973 83.5223L14.0648 83.6654L14.1885 83.6912C14.1978 83.8896 14.2063 84.088 14.1963 84.2864C14.1901 84.4107 14.0864 84.4215 13.9704 84.4193C13.3215 84.4042 12.6718 84.3841 12.0229 84.3856C11.2332 84.387 10.4443 84.4078 9.65543 84.4208H9.4698C9.4698 84.2102 9.45897 84.0089 9.47753 83.8084C9.4814 83.7602 9.57267 83.6927 9.63532 83.6776L10.4134 83.5245C10.7437 83.449 10.9014 83.2916 10.92 82.9797C11.0082 81.535 11.0716 80.0896 10.9254 78.6456C10.8898 78.3604 10.8046 78.0825 10.6733 77.8227C10.2749 77.0047 9.37853 76.6633 8.34445 76.9091C7.85332 77.0256 7.41014 77.2347 6.99093 77.4985C6.89952 77.5508 6.82443 77.6244 6.77314 77.7121C6.72185 77.7997 6.69614 77.8983 6.69857 77.998C6.69857 79.4391 6.70399 80.8802 6.70863 82.3206L6.71714 82.8762C6.72642 83.2636 6.90354 83.4677 7.31732 83.5511C7.58339 83.6072 7.85254 83.6452 8.15418 83.697Z" fill="#50382B"/>
<path fill-rule="evenodd" clip-rule="evenodd" d="M54.9148 75.6736C55.0347 76.2155 55.0324 76.7028 54.6039 77.0723C54.1785 77.4396 53.6402 77.3159 53.115 77.234C53.1637 77.4913 53.2179 77.7098 53.2442 77.9312C53.4352 79.5764 52.6734 80.7976 51.0314 81.4955C50.4111 81.7585 49.7529 81.8563 49.0808 81.9066C48.7466 81.931 48.4543 82.1682 48.4226 82.4234C48.3901 82.6821 48.5649 82.9481 48.9145 83.0257C49.3267 83.117 49.7567 83.1428 50.1798 83.1881C51.0878 83.2844 52.0059 83.3283 52.9031 83.4792C54.2597 83.7063 55.0169 84.8067 54.7779 86.0732C54.5652 87.2002 53.8629 88.0203 52.8837 88.6492C51.234 89.7115 49.4242 90.022 47.4968 89.4801C46.3946 89.1696 45.6173 88.4961 45.3489 87.4065C45.2143 86.8609 45.3574 86.3672 45.7991 85.997C46.3242 85.5586 46.8958 85.1676 47.4457 84.7536L47.6236 84.5875L47.4194 84.4546C46.8587 84.2073 46.4101 83.8688 46.2361 83.2808C46.1765 83.0817 46.2384 82.9509 46.4201 82.8489C46.7295 82.6757 47.0373 82.4996 47.3428 82.3206C47.4867 82.2372 47.629 82.151 47.7628 82.0547C47.9454 81.9253 47.9291 81.829 47.711 81.7542C47.2036 81.5803 46.7527 81.328 46.4031 80.9399C45.8192 80.2923 45.6537 79.5211 45.7016 78.7067C45.7766 77.4345 46.5199 76.5965 47.728 76.0574C49.1643 75.417 50.6052 75.3767 52.0693 75.9604C52.6107 76.176 53.1815 76.222 53.7624 76.1846C54.1963 76.1559 54.5753 76.0035 54.9148 75.6736ZM49.6222 84.7881C48.544 84.7794 48.206 84.9031 47.5733 85.5018C46.8649 86.1731 46.8687 87.1039 47.5756 87.7781C48.1124 88.2891 48.7822 88.5284 49.527 88.6003C50.3972 88.6837 51.2541 88.6499 52.0446 88.2452C52.8876 87.8118 53.3068 87.0068 53.1173 86.1961C52.9603 85.5269 52.4297 85.2207 51.7839 85.0447C51.0492 84.8448 50.2896 84.8067 49.6222 84.7881ZM47.5045 78.3854C47.5439 78.6636 47.5602 78.9453 47.6267 79.2177C47.7992 79.9236 48.1294 80.5438 48.8851 80.8579C49.7722 81.2281 50.9053 81.0692 51.2936 79.9121C51.5588 79.142 51.5279 78.3101 51.2062 77.5589C51.0698 77.2155 50.8243 76.9187 50.5023 76.7079C49.732 76.2083 48.3421 76.1422 47.776 77.2462C47.5919 77.6049 47.52 77.9865 47.5045 78.3854Z" fill="#4F382B"/>
<path fill-rule="evenodd" clip-rule="evenodd" d="M36.6224 75.4961C36.651 75.619 36.7082 75.7584 36.7098 75.8986C36.7121 76.1652 36.6812 76.4319 36.6649 76.6985V76.93L36.9078 76.7575C37.5729 76.2486 38.2876 75.8152 39.1198 75.5816C40.6218 75.1611 42.1223 75.9252 42.6119 77.3469C42.7975 77.8874 42.871 78.4429 42.8779 79.0079C42.8934 80.2628 42.9027 81.5178 42.9166 82.7727C42.9212 83.2234 42.9769 83.3039 43.4356 83.4339C43.6966 83.5064 43.9628 83.5614 44.2322 83.5985C44.38 83.6201 44.4434 83.674 44.4356 83.8084L44.4372 83.932C44.4318 84.4517 44.3931 84.4754 43.8509 84.474C42.5531 84.4718 41.256 84.479 39.9582 84.4891C39.5715 84.4919 39.5707 84.5027 39.532 84.1477L39.5243 83.9435C39.5483 83.6374 39.556 83.6402 39.8801 83.5957C40.0982 83.5655 40.3148 83.5188 40.5275 83.467C40.7463 83.4145 40.8515 83.2643 40.8809 83.0631C40.8956 82.961 40.915 82.8589 40.9142 82.7569C40.8956 81.3855 40.9196 80.0127 40.8392 78.6435C40.7742 77.5359 39.8646 76.8761 38.6681 76.9515C38.0914 76.9887 37.5369 77.1735 37.0663 77.4856C36.7469 77.6933 36.6827 77.993 36.6842 78.3157C36.6904 79.598 36.7036 80.8802 36.7183 82.1632C36.7214 82.4442 36.7299 82.7253 36.7585 83.0041C36.7887 83.3089 36.9039 83.4318 37.2257 83.4979C37.5335 83.5612 37.8475 83.5978 38.1762 83.6488L38.2041 83.8846C38.2149 84.4344 38.153 84.4754 37.5783 84.4733C36.2364 84.4682 34.8945 84.4761 33.5534 84.4898C33.3422 84.4927 33.2525 84.4309 33.2579 84.2397L33.2548 84.1577C33.22 83.6625 33.2355 83.6438 33.7398 83.5633L33.978 83.5188C34.524 83.4045 34.664 83.2694 34.6718 82.754C34.6973 81.1217 34.7066 79.4902 34.7244 77.8579C34.7267 77.6236 34.6315 77.4417 34.3964 77.3447C34.0664 77.2104 33.7346 77.08 33.401 76.9537C33.2169 76.8833 33.0066 76.8387 32.9996 76.6022C32.995 76.4355 33.1868 76.2881 33.449 76.2385C33.9757 76.1394 34.507 76.0567 35.0275 75.9352C35.5457 75.8152 36.0547 75.6542 36.6224 75.4961Z" fill="#4F372B"/>
<path fill-rule="evenodd" clip-rule="evenodd" d="M65.6376 79.7597C65.6128 81.2842 65.1867 82.5168 64.0265 83.4419C62.557 84.6156 60.2645 85.0145 58.3905 84.1369C57.5907 83.7624 57.0029 83.1881 56.6201 82.4428C56.033 81.2964 55.8861 80.091 56.1924 78.8562C56.4956 77.6351 57.2914 76.7503 58.4825 76.1774C59.7076 75.5888 60.9977 75.3588 62.3582 75.6679C64.0791 76.0581 65.3158 77.3619 65.5618 79.0223C65.6059 79.3134 65.6229 79.608 65.6376 79.7597ZM63.6444 80.5855L63.5779 80.5784C63.5779 80.4346 63.5864 80.2909 63.5764 80.1471C63.5199 79.2515 63.3033 78.3984 62.7449 77.6487C62.2151 76.9386 61.4935 76.5196 60.5546 76.4585C59.5034 76.3895 58.6202 76.9357 58.31 77.9334C57.8444 79.4312 58.0022 80.891 58.8205 82.2631C59.1771 82.8611 59.7053 83.3024 60.413 83.5346C61.7998 83.9881 63.0296 83.4009 63.3907 82.0813C63.5238 81.5939 63.5625 81.0844 63.6444 80.5855Z" fill="#4F382B"/>
<path fill-rule="evenodd" clip-rule="evenodd" d="M31.5709 79.8776C31.5423 80.9715 31.2646 81.9828 30.5376 82.8618C29.7587 83.8034 28.6883 84.3065 27.4709 84.5185C26.0315 84.7687 24.6796 84.5415 23.5233 83.6438C22.9741 83.2169 22.599 82.6699 22.3515 82.0475C21.9455 81.0268 21.8441 79.9811 22.094 78.9152C22.3608 77.7745 23.0538 76.9027 24.1281 76.3176C25.3702 75.6427 26.7106 75.3415 28.1422 75.6448C29.983 76.0358 31.0457 77.1506 31.4386 78.8383C31.5175 79.1789 31.5284 79.5311 31.5709 79.8776ZM29.5553 80.5992L29.5019 80.592V80.3864C29.4718 79.3831 29.2606 78.4271 28.6164 77.5934C28.1392 76.9745 27.5003 76.5864 26.6812 76.4779C25.3463 76.3011 24.4738 77.0371 24.1846 78.0368C23.8071 79.3428 23.9255 80.633 24.5094 81.8714C24.8737 82.6433 25.4491 83.2449 26.3332 83.5367C27.7114 83.9917 28.9598 83.3894 29.3086 82.0748C29.437 81.5939 29.4757 81.0923 29.5553 80.5992Z" fill="#4F372B"/>
<path fill-rule="evenodd" clip-rule="evenodd" d="M63.702 24.1097C64.651 26.6592 65.3331 29.2617 65.5582 31.9585C65.8367 35.305 65.7098 38.6285 64.9503 41.9197L64.8528 42.1827C64.6146 42.1834 64.3718 42.1554 64.139 42.1892C62.1721 42.4767 60.2076 42.7742 58.2423 43.0704C56.2105 43.3766 54.1771 43.6705 52.1491 43.9968C51.4306 44.1118 50.5412 43.9746 50.2511 44.8974L50.1119 44.9413L50.2101 39.4227L50.1104 26.1072L51.057 25.9562C52.6047 25.7212 54.1523 25.4818 55.7023 25.2526C57.5508 24.9802 59.4009 24.7142 61.2509 24.4483C62.0677 24.3318 62.8852 24.2233 63.702 24.1097Z" fill="#439934"/>
<path fill-rule="evenodd" clip-rule="evenodd" d="M48.1582 61.0298C47.1597 60.232 46.1264 59.4694 45.1697 58.6299C40.0201 54.1161 36.2527 48.8024 34.3972 42.3962C33.886 40.6338 33.5457 38.842 33.4358 37.0207C33.3585 35.7456 33.2479 34.4597 33.3454 33.1912C33.6029 29.8181 34.1281 26.4773 35.1923 23.2278L35.2511 23.1524C35.3547 23.2803 35.5032 23.3939 35.5558 23.5383C36.5953 26.3817 37.6263 29.228 38.6527 32.0764C41.8771 41.0255 45.0977 49.9768 48.3276 58.9246C48.391 59.0992 48.5542 59.2422 48.6718 59.3997L48.1582 61.0298Z" fill="#45A538"/>
<path fill-rule="evenodd" clip-rule="evenodd" d="M63.7016 24.1097C62.8841 24.2226 62.0666 24.3318 61.2506 24.4483C59.4005 24.7142 57.5505 24.9802 55.702 25.2526C54.1528 25.4811 52.6051 25.7205 51.0567 25.9562L50.11 26.1072L50.1023 25.5336C50.0706 25.0621 50.018 24.5906 50.011 24.1191L49.905 15.0959C49.8803 13.2135 49.8432 11.3311 49.8022 9.44941C49.7813 8.27987 49.7449 7.11061 49.6931 5.94191C49.6622 5.31444 49.5531 4.68984 49.5098 4.06237C49.4843 3.70156 49.5183 3.33787 49.5268 2.97562C50.0095 3.84459 50.482 4.72003 50.9778 5.58253C51.7613 6.946 53.0104 7.95081 54.1357 9.04691C58.5799 13.3817 61.7348 18.4187 63.7016 24.1097Z" fill="#46A037"/>
<path fill-rule="evenodd" clip-rule="evenodd" d="M50.1124 44.9413L50.2516 44.8974C50.5417 43.9746 51.4311 44.1118 52.1496 43.9968C54.1776 43.6705 56.211 43.3766 58.2428 43.0704C60.2081 42.775 62.1726 42.4774 64.1395 42.1892C64.3723 42.1554 64.6151 42.1834 64.8533 42.1827C64.486 43.4017 64.1967 44.6473 63.7303 45.8325C63.2005 47.1766 62.5601 48.489 61.8803 49.7756C60.8618 51.6942 59.6019 53.4936 58.1268 55.136C56.9929 56.4025 55.7291 57.5747 54.463 58.7312C53.7623 59.3702 52.9378 59.8913 52.169 60.4663L51.9694 60.3398L51.2525 59.7705L50.5107 58.2583C50.0039 56.4948 49.7274 54.6811 49.687 52.8562L49.7009 52.5485L49.8023 51.216C49.8355 50.761 49.8804 50.3068 49.9013 49.8518C49.9755 48.2159 50.042 46.5786 50.1124 44.9413Z" fill="#409433"/>
<path fill-rule="evenodd" clip-rule="evenodd" d="M50.1126 44.9413C50.043 46.5786 49.9765 48.2166 49.9014 49.8539C49.8805 50.3096 49.8365 50.7639 49.8024 51.2181L49.3507 51.377C48.3468 48.6306 47.3421 45.913 46.3599 43.189C44.7349 38.6817 43.13 34.1679 41.5073 29.6592C40.197 26.0204 38.8775 22.3845 37.5489 18.7515C37.4862 18.5818 37.3083 18.4482 37.1846 18.2979L40.0772 13.3551C40.177 13.5154 40.3077 13.6656 40.3704 13.8381C41.7084 17.5181 43.0441 21.1988 44.3683 24.8831C46.0915 29.6772 47.8031 34.4734 49.5248 39.2682C49.5936 39.4594 49.7065 39.6362 49.8148 39.8511L50.2108 39.4227L50.1126 44.9413Z" fill="#4FAA41"/>
<path fill-rule="evenodd" clip-rule="evenodd" d="M37.1836 18.2979C37.3081 18.4482 37.486 18.5818 37.5479 18.7515C38.8766 22.3845 40.1961 26.0204 41.5063 29.6592C43.129 34.1679 44.7339 38.6817 46.3589 43.189C47.3411 45.913 48.3458 48.6299 49.3498 51.377L49.8015 51.2181L49.7001 52.5507L49.6081 52.8576C49.4511 54.3159 49.3188 55.7772 49.127 57.2326C49.0311 57.9622 48.8261 58.678 48.6707 59.3997C48.5539 59.2423 48.3899 59.0992 48.3265 58.9246C45.0959 49.9768 41.876 41.0255 38.6516 32.0764C37.6257 29.2284 36.5934 26.3824 35.5547 23.5383C35.5021 23.3939 35.3536 23.2803 35.25 23.1524L37.1836 18.2979Z" fill="#4AA73C"/>
<path fill-rule="evenodd" clip-rule="evenodd" d="M50.2102 39.4227L49.8142 39.8511C49.706 39.6362 49.593 39.4594 49.5242 39.2682C47.8025 34.4734 46.0909 29.6772 44.3677 24.8831C43.042 21.1993 41.7094 17.5176 40.3698 13.8381C40.3071 13.6656 40.1764 13.5154 40.0767 13.3551L43.6538 8.98222C43.7667 9.12165 43.9276 9.246 43.9856 9.4034C44.9787 12.1059 45.9625 14.8106 46.9417 17.5174C47.8559 20.0459 48.7562 22.5774 49.6812 25.1016C49.7431 25.2705 49.9589 25.3898 50.1027 25.5336L50.1105 26.1072L50.2102 39.4227Z" fill="#57AE47"/>
<path fill-rule="evenodd" clip-rule="evenodd" d="M50.1027 25.5336C49.9581 25.3906 49.7431 25.2712 49.6812 25.1016C48.7569 22.5774 47.8559 20.0459 46.9417 17.5174C45.9633 14.8105 44.9779 12.1059 43.9856 9.4034C43.9276 9.246 43.7667 9.12165 43.6538 8.98222C44.8171 7.9235 45.944 6.82669 47.1544 5.81684C48.2302 4.91984 49.0949 3.95815 49.1352 2.54006L49.2202 2.25759L49.5265 2.9749C49.5188 3.33715 49.484 3.70084 49.5095 4.06165C49.5536 4.68912 49.6626 5.31372 49.6928 5.94118C49.7493 7.10915 49.7763 8.27928 49.8019 9.44869C49.8429 11.3304 49.88 13.2128 49.9047 15.0952L50.0107 24.1184C50.0184 24.5906 50.0718 25.0621 50.1027 25.5336Z" fill="#60B24F"/>
<path fill-rule="evenodd" clip-rule="evenodd" d="M48.6716 59.3989C48.827 58.6773 49.032 57.9614 49.1279 57.2319C49.3197 55.7772 49.452 54.3152 49.609 52.8569L49.6484 52.8511L49.6871 52.8576C49.7274 54.6825 50.004 56.4962 50.5108 58.2597C50.4064 58.3877 50.2602 58.5005 50.2045 58.6442C49.7753 59.7698 49.37 60.9047 48.9384 62.0296C48.8796 62.1834 48.7141 62.3034 48.5989 62.4378L48.1572 61.0291L48.6716 59.3989Z" fill="#A9AA88"/>
<path fill-rule="evenodd" clip-rule="evenodd" d="M48.5991 62.4385C48.7144 62.3034 48.8799 62.1841 48.9387 62.0303C49.3702 60.9054 49.7755 59.7705 50.2048 58.645C50.2597 58.5012 50.4066 58.3884 50.5111 58.2604L51.2528 59.7727C51.1066 59.9653 50.904 60.14 50.8228 60.3549L49.4027 64.2304C49.3439 64.3863 49.1452 64.4956 49.0106 64.6271L48.5991 62.4385Z" fill="#B6B598"/>
<path fill-rule="evenodd" clip-rule="evenodd" d="M49.0103 64.6264C49.1441 64.4949 49.3436 64.3856 49.4024 64.2297L50.8224 60.3542C50.9029 60.1393 51.1063 59.9646 51.2524 59.772L51.9702 60.3405C51.6237 60.6589 51.4311 61.0269 51.5471 61.4919L51.329 62.1553C51.23 62.2689 51.0862 62.3681 51.0374 62.4982C50.5417 63.8178 50.0691 65.1446 49.5694 66.4635C49.506 66.6303 49.3305 66.7618 49.2075 66.9099L49.0103 64.6264Z" fill="#C2C1A7"/>
<path fill-rule="evenodd" clip-rule="evenodd" d="M49.2071 66.9092C49.3309 66.7611 49.5064 66.6296 49.5691 66.4628C50.0687 65.1439 50.5421 63.8171 51.0371 62.4975C51.0858 62.3674 51.2296 62.2689 51.3286 62.1546L51.0278 65.1992C50.9473 65.2855 50.8313 65.361 50.7927 65.4609L49.7918 68.126C49.7214 68.3078 49.5869 68.4703 49.4817 68.6406C49.3881 68.5271 49.221 68.4171 49.2133 68.2992C49.1839 67.8378 49.2048 67.3727 49.2071 66.9092Z" fill="#CECDB7"/>
<path fill-rule="evenodd" clip-rule="evenodd" d="M49.4824 68.6413C49.5876 68.471 49.7222 68.3086 49.7926 68.1267L50.7934 65.4616C50.8321 65.361 50.9489 65.2862 51.0285 65.2L51.0363 67.1981L50.3162 68.9137L49.4824 68.6413Z" fill="#DBDAC7"/>
<path fill-rule="evenodd" clip-rule="evenodd" d="M50.3159 68.9137L51.036 67.1981L51.1845 69.2278L50.3159 68.9137Z" fill="#EBE9DC"/>
<path fill-rule="evenodd" clip-rule="evenodd" d="M51.5467 61.4919C51.4315 61.0276 51.6233 60.6596 51.9698 60.3405L52.1693 60.467L51.5467 61.4919Z" fill="#CECDB7"/>
<path fill-rule="evenodd" clip-rule="evenodd" d="M49.687 52.8583L49.6483 52.8518L49.6089 52.8576L49.7009 52.5507L49.687 52.8583Z" fill="#4FAA41"/>
</svg>
