<svg width="121" height="121" viewBox="0 0 121 121" fill="none" xmlns="http://www.w3.org/2000/svg">
<path d="M0 86.3193H4.01002V70.4882L10.2169 84.2879C10.9477 85.9611 11.9487 86.5481 13.9169 86.5481C15.885 86.5481 16.8455 85.9611 17.5762 84.2879L23.7831 70.4882V86.3184H27.7931V70.5146C27.7931 68.971 27.1768 68.2251 25.9025 67.8413C22.8558 66.8922 20.8139 67.7118 19.8875 69.7688L13.7987 83.3907L7.90187 69.7688C7.01611 67.7118 4.93359 66.8922 1.89062 67.8413C0.616344 68.2251 0 68.971 0 70.5146L0 86.3193ZM31.1291 73.4319H35.1354V82.1543C35.0985 82.6269 35.2866 83.7386 37.4835 83.7755H46.2021V73.3875H50.2197C50.2386 73.3875 50.2122 87.552 50.2122 87.6116C50.2339 91.1045 45.8807 91.8617 43.872 91.9212H31.2142V89.2252L43.8946 89.2214C46.4753 88.952 46.1691 87.6664 46.1691 87.2382V86.186H37.6499C33.6843 86.1492 31.1622 84.4174 31.1291 82.4265C31.1254 82.246 31.2142 73.5207 31.1291 73.4319Z" fill="#00618A"/>
<path d="M53.3071 86.3193H64.8352C66.1832 86.3193 67.4944 86.0348 68.5352 85.5479C70.2708 84.7539 71.1159 83.6724 71.1159 82.2582V79.3297C71.1159 78.1736 70.1554 77.0921 68.2648 76.3756C67.2637 75.988 66.0273 75.7847 64.8343 75.7847H59.9744C58.357 75.7847 57.5856 75.297 57.3937 74.2193C57.3568 74.0898 57.3568 73.9868 57.3568 73.8573V72.0328C57.3568 71.9298 57.3568 71.8258 57.3937 71.6972C57.5856 70.8776 58.0101 70.6451 59.4356 70.5156L59.8232 70.4901H71.27V67.8205H60.016C58.3986 67.8205 57.5497 67.9235 56.7774 68.1532C54.3886 68.8991 53.3468 70.0807 53.3468 72.1377V74.4755C53.3468 76.2735 55.3887 77.8172 58.8192 78.1754L59.9754 78.2274H64.1404C64.2954 78.2274 64.4467 78.2274 64.5649 78.253C65.8354 78.356 66.3742 78.5885 66.7618 79.0508C66.9612 79.2351 67.0756 79.4979 67.068 79.7674V82.1089C67.068 82.3896 66.8761 82.7517 66.4923 83.058C66.1454 83.368 65.5659 83.5713 64.7974 83.6233L64.373 83.6488H53.3071V86.3193ZM96.127 81.6665C96.127 84.4173 98.1726 85.9573 102.293 86.2673L103.453 86.3193H113.9V83.646H103.376C101.024 83.646 100.137 83.0551 100.137 81.641V67.8148H96.1307V81.6655L96.127 81.6665ZM73.6758 81.8064V72.2758C73.6758 69.8567 75.3783 68.3877 78.7379 67.9254C79.0964 67.8736 79.4581 67.8477 79.8203 67.8479H87.4272C87.8148 67.8479 88.1617 67.8734 88.5503 67.9254C91.9109 68.3867 93.6096 69.8567 93.6096 72.2758V81.8064C93.6096 83.7708 92.8893 84.82 91.2246 85.5063L95.176 89.0702H90.5194L87.3251 86.186L84.1092 86.3893H79.8222C79.0255 86.3864 78.2328 86.2745 77.4665 86.0565C74.9151 85.3627 73.6777 84.0222 73.6777 81.8064H73.6758ZM78.0034 81.5738C78.0034 81.7034 78.0403 81.8319 78.0809 81.9879C78.3135 83.0958 79.3552 83.7121 80.9386 83.7121H84.58L81.2345 80.6919H85.8911L88.8083 83.3283C89.3472 83.04 89.6979 82.6042 89.8236 82.0399C89.8605 81.9104 89.8605 81.7818 89.8605 81.6523V72.513C89.8605 72.41 89.8605 72.2805 89.8236 72.151C89.5911 71.1206 88.5493 70.5298 87.0028 70.5298H80.9396C79.1633 70.5298 78.0044 71.3011 78.0044 72.513L78.0034 81.5738Z" fill="#E48E00"/>
<path d="M117.426 63.3804C114.963 63.3142 113.079 63.543 111.469 64.2226C111.012 64.4145 110.28 64.4183 110.206 64.9912C110.458 65.2568 110.498 65.652 110.698 65.9734C111.082 66.5973 111.732 67.4282 112.311 67.864L114.272 69.2668C115.475 70.0013 116.823 70.4229 117.987 71.1575C118.671 71.5932 119.349 72.1396 120.018 72.6312C120.347 72.8713 120.568 73.2513 121 73.4026V73.3326C120.775 73.0443 120.715 72.6492 120.508 72.3504L119.596 71.4382C118.706 70.2566 117.576 69.2186 116.373 68.3546C115.412 67.6674 113.271 66.7372 112.868 65.6217L112.798 65.5517C113.478 65.478 114.276 65.2303 114.9 65.064C115.956 64.7794 116.897 64.8532 117.983 64.5724L119.457 64.148V63.871C118.907 63.3057 118.516 62.5598 117.913 62.0465C116.348 60.7136 114.634 59.377 112.869 58.2615C111.891 57.6452 110.684 57.2462 109.646 56.7216C109.299 56.5448 108.685 56.456 108.453 56.1601C107.91 55.4662 107.614 54.5871 107.194 53.7779L104.671 48.4529C104.14 47.2382 103.792 46.0377 103.128 44.9487C99.9487 39.7164 96.5219 36.559 91.2149 33.4574C90.089 32.7967 88.7259 32.5377 87.2938 32.1983L84.9787 32.0584C84.5098 31.8589 84.022 31.2832 83.5796 31.0062C81.8223 29.8946 77.3131 27.4802 76.0096 30.6555C75.19 32.6605 77.2394 34.6173 77.9739 35.6336C78.4872 36.3463 79.148 37.1442 79.5138 37.9448C79.7577 38.4695 79.7984 38.997 80.0054 39.5547C80.5149 40.9282 80.9583 42.4199 81.619 43.6904C81.9518 44.3333 82.3167 45.0092 82.7383 45.5811C82.9964 45.9318 83.4397 46.0906 83.5097 46.6332C83.0777 47.2392 83.0521 48.1769 82.8082 48.9445C81.7117 52.3968 82.1248 56.6876 83.7205 59.2465C84.2083 60.0292 85.3596 61.7128 86.944 61.0672C88.3289 60.5019 88.0188 58.7559 88.4139 57.2122C88.5066 56.8653 88.4508 56.6063 88.6248 56.3737V56.4437L89.8877 58.9658C90.8217 60.4688 92.476 62.038 93.8797 63.0977C94.6105 63.6479 95.1833 64.6008 96.1249 64.9222V64.8484H96.0549C95.8706 64.5677 95.586 64.4495 95.3535 64.2207C94.8033 63.6819 94.1936 63.0136 93.7436 62.3963C92.4656 60.6645 91.3359 58.7663 90.3093 56.7906C89.8177 55.8491 89.3895 54.8073 88.9764 53.8478C88.8176 53.4782 88.8214 52.9176 88.4886 52.7286C88.0349 53.43 87.3665 53.9991 87.0149 54.83C86.4534 56.1553 86.3834 57.7766 86.1726 59.4535L86.0327 59.5235C85.0581 59.2872 84.714 58.2832 84.3529 57.4221C83.4331 55.2431 83.2639 51.7313 84.0721 49.2243C84.2792 48.5749 85.2245 46.5283 84.8407 45.9308C84.6601 45.3325 84.058 44.9855 83.7214 44.528C83.2815 43.9145 82.9055 43.2575 82.5993 42.5674C81.8497 40.8649 81.499 38.9601 80.7087 37.2425C80.3325 36.4191 79.6934 35.5882 79.1688 34.8575C78.5855 34.0492 77.9352 33.4546 77.4852 32.4753C77.3264 32.1283 77.109 31.5706 77.3453 31.2123C77.419 30.9722 77.5296 30.873 77.766 30.7954C78.1724 30.4816 79.3059 30.8985 79.7265 31.0724C80.8524 31.5413 81.7911 31.9846 82.743 32.6161C83.1968 32.9186 83.659 33.5057 84.213 33.6683H84.8444C85.8304 33.8932 86.9345 33.7344 87.8581 34.0152C89.4869 34.5096 90.9493 35.2819 92.2708 36.1204C96.3101 38.668 99.6121 42.298 101.871 46.6294C102.237 47.3271 102.392 47.9916 102.714 48.7309C103.36 50.2226 104.172 51.7587 104.815 53.2173C105.458 54.6759 106.082 56.1421 106.987 57.3531C107.463 57.9883 109.305 58.3277 110.14 58.6822C110.727 58.9298 111.688 59.1879 112.241 59.5244C113.305 60.1635 114.332 60.9235 115.329 61.6259C115.823 61.9804 117.353 62.7489 117.43 63.3794L117.426 63.3804ZM86.1008 36.6829C85.6768 36.6756 85.2537 36.7226 84.8416 36.8228V36.8927H84.9116C85.1555 37.3985 85.5875 37.7236 85.89 38.1556L86.5914 39.6256L86.6613 39.5594C87.0971 39.2532 87.2928 38.7616 87.2928 38.0157C87.116 37.8314 87.0933 37.6026 86.9421 37.3843C86.7426 37.0922 86.356 36.9305 86.1008 36.6829Z" fill="#00618A"/>
</svg>
