<svg width="111" height="111" viewBox="0 0 111 111" fill="none" xmlns="http://www.w3.org/2000/svg">
<path d="M0 44.3115V66.652H3.8347V49.0863L17.9768 66.6607H41.9927V63.094H26.4952V57.1962H38.9567V53.6295H26.4952V47.8878H41.9918V44.3185H22.6596V47.8878H22.6613V66.4959L4.79295 44.3115H0ZM73.789 44.3202V47.8887H81.6197V66.6633H85.4527V47.8887H93.1247V44.3194H73.789V44.3202ZM46.6269 44.3298L64.6037 66.672H69.636L60.6476 55.5087L69.623 44.3471L64.602 44.3558L58.1337 52.3868L51.6471 44.3306H46.6261L46.6269 44.3298ZM107.467 56.989C106.807 56.989 106.214 57.1 105.688 57.3306C105.166 57.5587 104.754 57.8796 104.452 58.2915C104.148 58.7043 103.997 59.1864 103.997 59.7345C103.997 60.4022 104.22 60.9347 104.673 61.3362C105.121 61.7386 105.737 62.0377 106.515 62.2346L107.59 62.5051C107.894 62.5787 108.191 62.6756 108.48 62.7948C108.704 62.8834 108.906 63.0198 109.072 63.1946C109.216 63.3626 109.293 63.5779 109.287 63.799C109.29 64.0527 109.203 64.2991 109.042 64.4953C108.867 64.7059 108.64 64.8661 108.383 64.9593C108.069 65.0752 107.736 65.1317 107.401 65.1258C107.072 65.1303 106.744 65.0769 106.433 64.968C106.163 64.8705 105.923 64.704 105.736 64.4849C105.553 64.2542 105.446 63.9719 105.431 63.6776H103.748C103.771 64.2933 103.935 64.8188 104.239 65.2489C104.542 65.679 104.964 66.006 105.505 66.2288C106.042 66.4543 106.681 66.567 107.414 66.567C108.173 66.567 108.818 66.4491 109.351 66.2202C109.886 65.986 110.294 65.6626 110.577 65.2507C110.86 64.8353 111 64.3592 111 63.8129C111 63.4087 110.922 63.0567 110.769 62.7575C110.618 62.4599 110.405 62.1977 110.145 61.9883C109.874 61.7715 109.574 61.5943 109.253 61.4619C108.92 61.3204 108.575 61.2087 108.222 61.128L107.337 60.9112C107.142 60.8645 106.948 60.8081 106.759 60.7421C106.577 60.6804 106.403 60.5974 106.241 60.495C106.09 60.4048 105.962 60.2807 105.868 60.1325C105.774 59.9821 105.726 59.8071 105.731 59.6295C105.732 59.4056 105.804 59.1877 105.937 59.0078C106.073 58.8257 106.271 58.6817 106.525 58.5742C106.817 58.4619 107.128 58.4077 107.441 58.4146C107.948 58.4146 108.362 58.5239 108.681 58.7468C108.835 58.8508 108.964 58.9882 109.057 59.1489C109.151 59.3096 109.207 59.4893 109.221 59.6746H110.869C110.869 59.1752 110.713 58.6882 110.424 58.2811C110.135 57.877 109.737 57.5587 109.23 57.3306C108.724 57.1008 108.137 56.989 107.467 56.989ZM100.531 57.1138V63.6611C100.529 63.988 100.478 64.2655 100.379 64.4884C100.29 64.6993 100.136 64.8766 99.9399 64.9948C99.7508 65.1102 99.5167 65.1683 99.2435 65.1683C98.9921 65.1683 98.7701 65.1188 98.5749 65.0208C98.3868 64.9286 98.2296 64.7837 98.1223 64.6037C98.0089 64.4059 97.9505 64.1813 97.9532 63.9533H96.2509C96.2509 64.5266 96.3784 65.0052 96.6385 65.3894C96.8972 65.7744 97.262 66.0762 97.6887 66.2583C98.1597 66.4599 98.6679 66.5604 99.1802 66.5532C99.7847 66.5532 100.317 66.437 100.772 66.2063C101.218 65.9848 101.59 65.6387 101.843 65.2099C102.097 64.7772 102.228 64.2621 102.232 63.6602V57.1138H100.531ZM54.2825 57.165L46.6131 66.6885H51.6471L56.7956 60.2886L54.2825 57.165ZM93.9866 64.5344C93.7057 64.5344 93.4663 64.6315 93.2669 64.8257C93.1705 64.9147 93.0941 65.023 93.0427 65.1437C92.9913 65.2643 92.966 65.3944 92.9686 65.5256C92.9653 65.6582 92.9902 65.7899 93.0417 65.9122C93.0931 66.0345 93.1698 66.1445 93.2669 66.2349C93.4663 66.43 93.7057 66.5263 93.9866 66.5263C94.1618 66.5275 94.334 66.4807 94.4844 66.391C94.6379 66.3034 94.7602 66.1829 94.8556 66.0303C94.9492 65.8785 94.999 65.7038 94.9995 65.5256C94.9995 65.394 94.9722 65.2639 94.9194 65.1435C94.8666 65.023 94.7893 64.9148 94.6925 64.8257C94.6003 64.7325 94.4903 64.6587 94.3691 64.6087C94.2478 64.5586 94.1178 64.5334 93.9866 64.5344Z" fill="black"/>
</svg>
