<svg width="110" height="121" viewBox="0 0 110 121" fill="none" xmlns="http://www.w3.org/2000/svg">
<g clip-path="url(#clip0_17_176)">
<path d="M98.2379 52.2323C98.1935 52.2322 98.1501 52.2467 98.1133 52.2739L96.0972 53.569C96.0592 53.5948 96.0281 53.6311 96.0067 53.6741C95.9853 53.7172 95.9744 53.7657 95.9752 53.8148V56.4049C95.9752 56.5146 96.0224 56.5978 96.0972 56.6526L98.1133 57.9458C98.1502 57.9728 98.1936 57.9872 98.2379 57.9872C98.2822 57.9872 98.3256 57.9728 98.3625 57.9458L100.375 56.6526C100.413 56.6263 100.445 56.5896 100.467 56.5461C100.489 56.5026 100.5 56.4537 100.5 56.404V53.8166C100.5 53.7673 100.489 53.7188 100.467 53.6758C100.445 53.6327 100.413 53.5966 100.375 53.5709L98.3616 52.2748C98.325 52.2478 98.282 52.2324 98.2379 52.2323ZM54.3298 67.7203C53.9629 67.7203 53.5977 67.8186 53.2866 68.0115L43.3616 74.3706C43.0435 74.5758 42.7797 74.8692 42.5967 75.2215C42.4136 75.5738 42.3177 75.9727 42.3184 76.3784V89.0673C42.3184 89.8936 42.7154 90.6649 43.3616 91.079L45.9741 92.7295C47.2426 93.4177 47.6903 93.4158 48.2618 93.4158C50.1266 93.4158 51.1966 92.15 51.1966 89.9748V77.4542C51.1955 77.367 51.1637 77.2838 51.1079 77.2219C51.0521 77.16 50.9767 77.1243 50.8975 77.1224H49.6308C49.5513 77.1238 49.4754 77.1593 49.4193 77.2212C49.3631 77.2832 49.3311 77.3667 49.33 77.4542V89.9777C49.33 90.941 48.4113 91.9061 46.9444 91.0809L44.2331 89.3462C44.1334 89.2914 44.0827 89.1515 44.0827 89.0418V76.3501C44.0827 76.2404 44.1334 76.1043 44.2331 76.0485L54.1545 69.7177C54.2293 69.6629 54.3548 69.6629 54.4545 69.7177L64.3785 76.0485C64.4773 76.1043 64.5263 76.213 64.5263 76.351V89.0409C64.5263 89.178 64.4773 89.2904 64.3785 89.3453L54.4545 95.7044C54.3797 95.7592 54.2542 95.7592 54.1545 95.7044L51.6185 94.0227C51.5438 93.9678 51.4441 93.9404 51.3693 93.9953C50.6732 94.4358 50.5512 94.4934 49.8791 94.7411C49.7296 94.7959 49.4813 94.9046 49.978 95.2071L53.2866 97.3833C53.6097 97.5752 53.9569 97.6848 54.3298 97.6848C54.7028 97.6848 55.0749 97.5761 55.3731 97.439L65.2981 91.0799C65.6164 90.8739 65.8802 90.5798 66.0632 90.2269C66.2462 89.874 66.3421 89.4746 66.3413 89.0683V76.3784C66.3413 75.5522 65.9443 74.7837 65.2981 74.3706L55.3731 68.0115C55.0536 67.8181 54.6945 67.7179 54.3298 67.7203ZM69.8244 73.5151C69.315 73.5173 68.8274 73.7419 68.4685 74.1395C68.1096 74.5371 67.909 75.0751 67.9106 75.6354C67.9092 76.1955 68.11 76.7333 68.4688 77.1307C68.8276 77.5281 69.3152 77.7525 69.8244 77.7548C70.8702 77.7548 71.7391 76.7915 71.7391 75.6354C71.7364 75.0765 71.5342 74.5411 71.176 74.1447C70.8179 73.7482 70.3324 73.5215 69.8244 73.5151ZM69.7986 73.8733C70.0105 73.8705 70.2207 73.9139 70.4172 74.0012C70.6136 74.0886 70.7923 74.2179 70.9429 74.3819C71.0935 74.5459 71.2129 74.7411 71.2943 74.9563C71.3756 75.1715 71.4173 75.4023 71.4168 75.6354C71.4168 76.5996 70.6949 77.4258 69.7995 77.4258C68.9298 77.4258 68.2079 76.6261 68.2079 75.6354C68.2079 74.6447 68.9538 73.8733 69.7986 73.8733ZM69.1034 74.4509V76.8728H69.5279V75.9124H69.9009C70.0504 75.9124 70.0994 75.9672 70.1243 76.1043C70.1243 76.1326 70.1982 76.7376 70.1982 76.8473H70.6451C70.5952 76.7376 70.5703 76.4068 70.5454 76.2139C70.5213 75.9114 70.4973 75.6912 70.1982 75.6638C70.3477 75.608 70.5961 75.5257 70.5961 75.0852C70.5961 74.4519 70.0977 74.4519 69.8502 74.4519L69.1034 74.4509ZM69.4772 74.8366H69.8244C69.9498 74.8366 70.1475 74.8366 70.1475 75.1665C70.1475 75.2762 70.0994 75.4983 69.8244 75.4983H69.4763L69.4772 74.8366ZM57.042 76.7367C54.2061 76.7367 52.5148 78.0582 52.5148 80.2882C52.5148 82.6837 54.2061 83.3416 56.9174 83.645C60.1745 84.0033 60.4237 84.527 60.4237 85.2426C60.4237 86.481 59.5265 87.0047 57.4373 87.0047C54.8008 87.0047 54.2293 86.2881 54.0299 84.8295C54.0299 84.6641 53.9079 84.5554 53.7584 84.5554H52.465C52.386 84.5564 52.3105 84.5915 52.2548 84.6533C52.1992 84.715 52.1679 84.7983 52.1677 84.8853C52.1677 86.757 53.0623 88.9596 57.4159 88.9596C60.5483 88.9596 62.3641 87.5813 62.3641 85.1594C62.3641 82.7914 60.9204 82.159 57.8627 81.7185C54.7776 81.278 54.4553 81.0303 54.4553 80.2325C54.4553 79.5717 54.7286 78.6916 57.0163 78.6916C59.0556 78.6916 59.8255 79.1879 60.1246 80.7013C60.1396 80.7696 60.1745 80.8306 60.224 80.875C60.2736 80.9194 60.3349 80.9447 60.3988 80.9471H61.7162C61.7918 80.9471 61.8666 80.8932 61.9173 80.8384C61.9634 80.7653 61.9889 80.6788 61.9903 80.5898C61.7918 77.9476 60.226 76.7367 57.042 76.7367Z" fill="#5FA04E"/>
<path d="M73.9682 23.3152C73.8624 23.3139 73.7582 23.3429 73.6657 23.3993C73.5694 23.461 73.4892 23.5488 73.4327 23.6545C73.3763 23.7601 73.3455 23.8799 73.3434 24.0024V41.8962C73.3434 42.0607 73.2661 42.2271 73.1174 42.3368C73.0487 42.3774 72.9719 42.3987 72.8939 42.3987C72.816 42.3987 72.7392 42.3774 72.6705 42.3368L70.0357 40.6588C69.8424 40.5369 69.6234 40.4728 69.4006 40.4728C69.1778 40.4728 68.9588 40.5369 68.7655 40.6588L58.2227 47.4036C58.0276 47.5247 57.865 47.7002 57.7514 47.9125C57.6378 48.1248 57.5771 48.3663 57.5756 48.6127V62.0739C57.5756 62.5693 57.8248 63.0382 58.2227 63.2858L68.7672 70.0306C68.9604 70.1524 69.1792 70.2164 69.4019 70.2164C69.6245 70.2164 69.8433 70.1524 70.0365 70.0306L80.5802 63.2858C80.9781 63.0382 81.2273 62.5693 81.2273 62.0739V28.5182C81.2273 27.9954 80.9781 27.5256 80.5802 27.2789L74.2896 23.3993C74.1901 23.3443 74.0795 23.3155 73.9682 23.3152ZM11.7623 40.1096C11.5638 40.1096 11.3653 40.189 11.1917 40.2987L0.647146 47.0189C0.44915 47.1432 0.284832 47.3232 0.171096 47.5406C0.0573609 47.7579 -0.00168405 48.0046 3.65571e-05 48.2554L0.0258178 66.3127C0.0258178 66.5613 0.148708 66.809 0.348083 66.9196C0.44035 66.9868 0.548541 67.0226 0.659177 67.0226C0.769814 67.0226 0.878005 66.9868 0.970271 66.9196L7.23855 62.9559C7.63644 62.7083 7.88308 62.2394 7.88308 61.744V53.2929C7.88308 52.7976 8.1323 52.3287 8.53105 52.081L11.1917 50.3748C11.3902 50.2367 11.6153 50.1819 11.8388 50.1819C12.0622 50.1819 12.2865 50.2367 12.461 50.3748L15.1216 52.081C15.5195 52.3287 15.7687 52.7976 15.7687 53.2929V61.744C15.7687 62.2394 16.0162 62.7083 16.4132 62.9559L22.6317 66.9196C22.7285 66.987 22.8407 67.0228 22.9552 67.0228C23.0698 67.0228 23.182 66.987 23.2788 66.9196C23.3775 66.8601 23.4597 66.7722 23.5166 66.6653C23.5735 66.5584 23.603 66.4366 23.6019 66.3127V48.2554C23.6019 47.76 23.3527 47.2911 22.9539 47.0425L12.4352 40.2987C12.2583 40.1944 12.0643 40.1298 11.8646 40.1087L11.7623 40.1096ZM98.273 40.3081C98.0556 40.3081 97.8399 40.3705 97.6405 40.4953L87.0943 47.2363C86.6964 47.484 86.4497 47.9529 86.4497 48.4492V61.9104C86.4497 62.4058 86.6964 62.8746 87.0943 63.1223L97.5649 69.7272C97.7534 69.8489 97.9681 69.913 98.1866 69.913C98.4052 69.913 98.6199 69.8489 98.8084 69.7272L105.151 65.8202C105.249 65.7606 105.331 65.6726 105.388 65.5658C105.445 65.4589 105.474 65.3371 105.473 65.2133C105.474 65.0899 105.444 64.9685 105.388 64.862C105.331 64.7555 105.249 64.6678 105.151 64.6083L94.5571 57.8626C94.4607 57.8003 94.3805 57.7119 94.3241 57.6059C94.2676 57.4998 94.2369 57.3795 94.2348 57.2566V53.0443C94.2336 52.9208 94.2629 52.7992 94.3197 52.6927C94.3764 52.5861 94.4585 52.4985 94.5571 52.4393L97.8657 50.3464C97.9625 50.2791 98.0747 50.2434 98.1892 50.2434C98.3037 50.2434 98.4159 50.2791 98.5128 50.3464L101.818 52.4384C101.915 52.5004 101.995 52.5887 102.052 52.6948C102.109 52.8008 102.14 52.9212 102.143 53.0443V56.3482C102.143 56.5968 102.267 56.8445 102.465 56.9541C102.562 57.0217 102.674 57.0576 102.789 57.0576C102.904 57.0576 103.016 57.0217 103.113 56.9541L109.379 52.9082C109.571 52.7849 109.73 52.6075 109.839 52.3944C109.948 52.1813 110.004 51.94 110.001 51.6954V48.4199C110.001 47.9245 109.752 47.4585 109.379 47.2099L98.9081 40.4944C98.7149 40.3727 98.4964 40.3083 98.2739 40.3072L98.273 40.3081ZM69.4006 50.3606C69.4565 50.3606 69.5132 50.3748 69.5639 50.4031L73.1681 52.7154C73.2678 52.7702 73.3185 52.9063 73.3185 53.0169V57.6414C73.3185 57.7794 73.2678 57.8909 73.1681 57.9458L69.563 60.258C69.5124 60.2852 69.4569 60.2993 69.4006 60.2993C69.3443 60.2993 69.2887 60.2852 69.2382 60.258L65.6331 57.9458C65.5334 57.8909 65.4827 57.752 65.4827 57.6414V53.0169C65.4827 52.8789 65.5343 52.7702 65.6331 52.7144L69.2382 50.4031C69.2889 50.3752 69.3439 50.3606 69.4006 50.3606Z" fill="#333333"/>
<path d="M41.2344 40.5473C41.0414 40.4256 40.8227 40.3615 40.6002 40.3615C40.3777 40.3615 40.1591 40.4256 39.966 40.5473L29.4954 47.2373C29.3033 47.3601 29.1443 47.5371 29.035 47.7499C28.9256 47.9627 28.8698 48.2038 28.8732 48.4482V61.8537C28.8732 62.35 29.1224 62.8179 29.4954 63.0656L39.966 69.7546C40.1591 69.8763 40.3777 69.9404 40.6002 69.9404C40.8227 69.9404 41.0414 69.8763 41.2344 69.7546L51.7042 63.0656C52.1021 62.8179 52.3264 62.35 52.3264 61.8537V48.4482C52.3264 47.9529 52.0772 47.484 51.7042 47.2373L41.2344 40.5473Z" fill="url(#paint0_linear_17_176)"/>
<path d="M51.7293 47.2373L41.2097 40.5473C41.1065 40.4897 40.9982 40.4438 40.8866 40.4102L29.0977 62.7347C29.1973 62.8727 29.3211 62.9824 29.4457 63.0656L39.9662 69.7546C40.2644 69.9475 40.6124 70.0023 40.9355 69.8917L52.0034 47.4849C51.9306 47.3802 51.8368 47.2955 51.7293 47.2373Z" fill="url(#paint1_linear_17_176)"/>
<path d="M51.7294 63.0646C52.0284 62.8718 52.2519 62.5419 52.3515 62.1836L40.8359 40.3819C40.5386 40.327 40.2146 40.3544 39.9413 40.5473L29.4956 47.2089L40.762 69.9465C40.9107 69.9191 41.0851 69.8643 41.2347 69.7811L51.7294 63.0646Z" fill="url(#paint2_linear_17_176)"/>
</g>
<defs>
<linearGradient id="paint0_linear_17_176" x1="44.8639" y1="45.5288" x2="33.7504" y2="66.0113" gradientUnits="userSpaceOnUse">
<stop stop-color="#3F873F"/>
<stop offset="0.33" stop-color="#3F8B3D"/>
<stop offset="0.637" stop-color="#3E9638"/>
<stop offset="0.934" stop-color="#3DA92E"/>
<stop offset="1" stop-color="#3DAE2B"/>
</linearGradient>
<linearGradient id="paint1_linear_17_176" x1="39.0093" y1="56.7164" x2="67.4158" y2="37.7534" gradientUnits="userSpaceOnUse">
<stop offset="0.138" stop-color="#3F873F"/>
<stop offset="0.402" stop-color="#52A044"/>
<stop offset="0.713" stop-color="#64B749"/>
<stop offset="0.908" stop-color="#6ABF4B"/>
</linearGradient>
<linearGradient id="paint2_linear_17_176" x1="28.4904" y1="55.1464" x2="52.7182" y2="55.1464" gradientUnits="userSpaceOnUse">
<stop offset="0.092" stop-color="#6ABF4B"/>
<stop offset="0.287" stop-color="#64B749"/>
<stop offset="0.598" stop-color="#52A044"/>
<stop offset="0.862" stop-color="#3F873F"/>
</linearGradient>
<clipPath id="clip0_17_176">
<rect width="110" height="121" fill="white"/>
</clipPath>
</defs>
</svg>
