<svg width="129" height="129" viewBox="0 0 129 129" fill="none" xmlns="http://www.w3.org/2000/svg">
<path d="M64.5003 75.9891C70.8455 75.9891 75.9894 70.8452 75.9894 64.5C75.9894 58.1548 70.8455 53.0109 64.5003 53.0109C58.1551 53.0109 53.0112 58.1548 53.0112 64.5C53.0112 70.8452 58.1551 75.9891 64.5003 75.9891Z" fill="#61DAFB"/>
<path d="M108.138 45.5531C105.921 44.7469 103.603 43.9406 101.185 43.2352C101.789 40.8164 102.293 38.3977 102.696 36.0797C104.813 22.7766 102.495 13.4039 96.0447 9.77578C94.1299 8.66719 92.0135 8.16328 89.5947 8.16328C82.54 8.16328 73.5705 13.4039 64.5002 22.1719C55.4299 13.4039 46.4604 8.16328 39.4057 8.16328C36.9869 8.16328 34.8705 8.66719 32.9557 9.77578C26.5057 13.5047 24.1877 22.8773 26.3041 36.0797C26.7072 38.3977 27.2111 40.8164 27.8158 43.2352C25.3971 43.9406 23.0791 44.6461 20.8619 45.5531C8.26426 50.3906 1.41113 57.0422 1.41113 64.5C1.41113 71.9578 8.36504 78.6094 20.8619 83.4469C23.0791 84.2531 25.3971 85.0594 27.8158 85.7648C27.2111 88.1836 26.7072 90.6023 26.3041 92.9203C24.1877 106.223 26.5057 115.596 32.9557 119.224C34.8705 120.333 36.9869 120.837 39.4057 120.837C46.5611 120.837 55.5307 115.596 64.5002 106.828C73.5705 115.596 82.54 120.837 89.5947 120.837C92.0135 120.837 94.1299 120.333 96.0447 119.224C102.495 115.495 104.813 106.123 102.696 92.9203C102.293 90.6023 101.789 88.1836 101.185 85.7648C103.603 85.0594 105.921 84.3539 108.138 83.4469C120.736 78.6094 127.589 71.9578 127.589 64.5C127.589 57.0422 120.736 50.3906 108.138 45.5531ZM93.2228 14.8148C97.3549 17.2336 98.7658 24.6914 97.0525 35.2734C96.7502 37.3898 96.2463 39.607 95.6416 41.925C90.401 40.7156 84.858 39.9094 79.0127 39.4055C75.5861 34.568 72.0588 30.2344 68.5314 26.3039C75.9893 18.9469 83.5479 13.9078 89.6955 13.9078C91.0057 13.9078 92.215 14.2102 93.2228 14.8148ZM81.9354 74.5781C80.1213 77.8031 78.0049 81.0281 75.7877 84.2531C72.0588 84.5555 68.3299 84.6563 64.5002 84.6563C60.5697 84.6563 56.8408 84.5555 53.2127 84.2531C50.9955 81.0281 48.9799 77.8031 47.1658 74.5781C45.251 71.2523 43.4369 67.8258 41.8244 64.5C43.4369 61.1742 45.251 57.7477 47.1658 54.4219C48.9799 51.1969 51.0963 47.9719 53.3135 44.7469C57.0424 44.4445 60.7713 44.3438 64.601 44.3438C68.5314 44.3438 72.2604 44.4445 75.8885 44.7469C78.1057 47.9719 80.1213 51.1969 81.9354 54.4219C83.8502 57.7477 85.6643 61.1742 87.2768 64.5C85.5635 67.8258 83.8502 71.1516 81.9354 74.5781ZM90.3002 71.2523C91.8119 74.7797 93.0213 78.2063 94.1299 81.6328C90.7033 82.4391 87.0752 83.0438 83.2455 83.5477C84.4549 81.6328 85.765 79.6172 86.8736 77.5008C88.083 75.3844 89.1916 73.268 90.3002 71.2523ZM64.5002 98.5641C62.0814 95.9438 59.7635 93.1219 57.5463 90.1992C59.8643 90.3 62.1822 90.4008 64.5002 90.4008C66.8182 90.4008 69.1361 90.3 71.4541 90.1992C69.2369 93.1219 66.9189 95.9438 64.5002 98.5641ZM45.7549 83.4469C41.9252 82.943 38.2971 82.3383 34.8705 81.532C35.9791 78.2063 37.1885 74.6789 38.7002 71.1516C39.8088 73.1672 40.9174 75.2836 42.1268 77.2992C43.3361 79.5164 44.5455 81.4313 45.7549 83.4469ZM38.7002 57.7477C37.1885 54.2203 35.9791 50.7938 34.8705 47.3672C38.2971 46.5609 41.9252 45.9563 45.7549 45.4523C44.5455 47.3672 43.2353 49.3828 42.1268 51.4992C40.9174 53.6156 39.8088 55.732 38.7002 57.7477ZM64.5002 30.4359C66.9189 33.0563 69.2369 35.8781 71.4541 38.8008C69.1361 38.7 66.8182 38.5992 64.5002 38.5992C62.1822 38.5992 59.8643 38.7 57.5463 38.8008C59.7635 35.8781 62.0814 33.0563 64.5002 30.4359ZM86.8736 51.6L83.2455 45.5531C87.0752 46.057 90.7033 46.6617 94.1299 47.468C93.0213 50.7938 91.8119 54.3211 90.3002 57.8484C89.1916 55.732 88.083 53.6156 86.8736 51.6ZM31.9479 35.2734C30.2346 24.6914 31.6455 17.2336 35.7775 14.8148C36.7854 14.2102 37.9947 13.9078 39.3049 13.9078C45.3518 13.9078 52.9104 18.8461 60.4689 26.3039C56.9416 30.1336 53.4143 34.568 49.9877 39.4055C44.1424 39.9094 38.5994 40.8164 33.3588 41.925C32.7541 39.607 32.351 37.3898 31.9479 35.2734ZM7.05488 64.5C7.05488 59.7633 12.7994 54.7242 22.8775 50.9953C24.8932 50.1891 27.1104 49.4836 29.3275 48.8789C30.94 53.918 32.9557 59.2594 35.3744 64.6008C32.9557 69.9422 30.8393 75.1828 29.3275 80.2219C15.4197 76.1906 7.05488 70.1438 7.05488 64.5ZM35.7775 114.185C31.6455 111.766 30.2346 104.309 31.9479 93.7266C32.2502 91.6102 32.7541 89.393 33.3588 87.075C38.5994 88.2844 44.1424 89.0906 49.9877 89.5945C53.4143 94.432 56.9416 98.7656 60.4689 102.696C53.0111 110.053 45.4525 115.092 39.3049 115.092C37.9947 115.092 36.7854 114.79 35.7775 114.185ZM97.0525 93.7266C98.7658 104.309 97.3549 111.766 93.2228 114.185C92.215 114.79 91.0057 115.092 89.6955 115.092C83.6486 115.092 76.09 110.154 68.5314 102.696C72.0588 98.8664 75.5861 94.432 79.0127 89.5945C84.858 89.0906 90.401 88.1836 95.6416 87.075C96.2463 89.393 96.6494 91.6102 97.0525 93.7266ZM106.123 78.0047C104.107 78.8109 101.89 79.5164 99.6729 80.1211C98.0603 75.082 96.0447 69.7406 93.626 64.3992C96.0447 59.0578 98.1611 53.8172 99.6729 48.7781C113.581 52.8094 121.946 58.8563 121.946 64.5C121.946 69.2367 116.1 74.2758 106.123 78.0047Z" fill="#61DAFB"/>
</svg>
