<svg width="119" height="119" viewBox="0 0 119 119" fill="none" xmlns="http://www.w3.org/2000/svg">
<path d="M21.0762 43.6953H113.738V112.185H21.0762V43.6953Z" fill="white"/>
<path d="M1.39453 59.4163V117.522H117.605V1.31086H1.39453V59.4163ZM95.042 54.7679C97.8253 55.4138 100.355 56.8695 102.312 58.9515C103.389 60.0731 104.326 61.3219 105.101 62.6702C105.101 62.819 100.081 66.2123 97.0222 68.1089C96.9106 68.1833 96.4644 67.6998 95.9716 66.9654C95.4133 66.0019 94.6199 65.1956 93.6656 64.6217C92.7113 64.0479 91.6272 63.7251 90.5144 63.6836C86.9909 63.4419 84.7224 65.292 84.741 68.332C84.7119 69.0889 84.8852 69.8399 85.243 70.5075C86.0147 72.1159 87.4557 73.0734 91.974 75.0258C100.295 78.6051 103.855 80.9665 106.068 84.3226C108.541 88.0414 109.09 94.0472 107.416 98.4911C105.557 103.325 101.001 106.607 94.5585 107.695C91.6159 108.032 88.6428 108.001 85.7079 107.602C81.2097 106.861 77.0663 104.701 73.8823 101.438C72.8131 100.257 70.7306 97.1802 70.8608 96.9571C71.2002 96.7052 71.5575 96.4783 71.9299 96.2784L76.2344 93.8984L79.572 91.9647L80.2692 92.9966C81.446 94.6799 82.9435 96.1143 84.6759 97.2174C88.3947 99.1698 93.4708 98.9002 95.9809 96.641C96.8237 95.8132 97.3495 94.716 97.4667 93.5405C97.5839 92.3649 97.2852 91.1855 96.6224 90.2076C95.6927 88.9153 93.8334 87.8276 88.6364 85.5591C82.6399 82.9746 80.0554 81.3755 77.694 78.8282C76.2198 77.1472 75.1314 75.164 74.5052 73.0177C74.038 70.5656 73.969 68.0542 74.3006 65.5802C75.5371 59.7882 79.8787 55.7441 86.2192 54.5448C89.1556 54.1814 92.1299 54.2629 95.042 54.7865V54.7679ZM67.7649 59.6395V64.3994H52.6761V107.379H41.9754V64.3902H26.8494V59.7417C26.8023 58.1387 26.8395 56.5343 26.9609 54.9352C27.0353 54.8516 36.2578 54.8516 47.4141 54.8516H67.7091L67.7649 59.6395Z" fill="#007ACC"/>
</svg>
